<svg width="114" height="131" viewBox="0 0 114 131" fill="none" xmlns="http://www.w3.org/2000/svg">
<path d="M50.0271 129.076L4.14548 101.638C2.91617 100.902 1.89339 99.8748 1.17006 98.6504C0.446725 97.426 0.0458321 96.0432 0.00370274 94.6276C-0.0384266 93.212 0.279512 91.8084 0.928794 90.5445C1.57808 89.2806 2.53811 88.1963 3.72151 87.3903L52.0923 54.5052C53.535 53.525 55.2467 53 57 53C58.7533 53 60.465 53.525 61.9077 54.5052L110.278 87.3903C111.462 88.1963 112.422 89.2806 113.071 90.5445C113.72 91.8084 114.038 93.212 113.996 94.6276C113.954 96.0432 113.553 97.426 112.83 98.6504C112.107 99.8748 111.084 100.902 109.854 101.638L63.9729 129.076C61.8719 130.334 59.4596 131 57 131C54.5404 131 52.1281 130.334 50.0271 129.076Z" fill="#054FFE"/>
<path d="M50.0271 102.057L4.14548 74.2653C2.91617 73.5193 1.89339 72.479 1.17006 71.2388C0.446725 69.9986 0.0458321 68.598 0.00370274 67.1641C-0.0384266 65.7303 0.279512 64.3086 0.928794 63.0284C1.57808 61.7482 2.53811 60.65 3.72151 59.8335L52.0923 26.5246C53.535 25.5318 55.2467 25 57 25C58.7533 25 60.465 25.5318 61.9077 26.5246L110.278 59.8335C111.462 60.65 112.422 61.7482 113.071 63.0284C113.72 64.3086 114.038 65.7303 113.996 67.1641C113.954 68.598 113.553 69.9986 112.83 71.2388C112.107 72.479 111.084 73.5193 109.854 74.2653L63.9729 102.057C61.8707 103.328 59.4589 104 57 104C54.5411 104 52.1293 103.328 50.0271 102.057Z" fill="#278DFF"/>
<path d="M50.0271 76.0559L4.14548 48.2533C2.91617 47.5069 1.89339 46.4662 1.17006 45.2255C0.446725 43.9848 0.0458321 42.5836 0.00370274 41.1492C-0.0384266 39.7147 0.279512 38.2925 0.928794 37.0118C1.57808 35.731 2.53811 34.6324 3.72151 33.8156L49.3675 2.37225C51.6098 0.827439 54.2706 0 56.9961 0C59.7215 0 62.3824 0.827439 64.6246 2.37225L110.278 33.8156C111.462 34.6324 112.422 35.731 113.071 37.0118C113.72 38.2925 114.038 39.7147 113.996 41.1492C113.954 42.5836 113.553 43.9848 112.83 45.2255C112.107 46.4662 111.084 47.5069 109.854 48.2533L63.9729 76.0559C61.8707 77.3276 59.4589 78 57 78C54.5411 78 52.1293 77.3276 50.0271 76.0559Z" fill="#6DD8FF"/>
</svg>
